<svg width="134" height="76" xmlns="http://www.w3.org/2000/svg" xmlns:xlink="http://www.w3.org/1999/xlink" xml:space="preserve" overflow="hidden"><defs><clipPath id="clip0"><rect x="96" y="889" width="134" height="76"/></clipPath><clipPath id="clip1"><rect x="96" y="889" width="134" height="76"/></clipPath><clipPath id="clip2"><rect x="96" y="890" width="134" height="75"/></clipPath><clipPath id="clip3"><rect x="96" y="890" width="134" height="75"/></clipPath><clipPath id="clip4"><rect x="96" y="890" width="134" height="75"/></clipPath></defs><g clip-path="url(#clip0)" transform="translate(-96 -889)"><g clip-path="url(#clip1)"><g clip-path="url(#clip2)"><g clip-path="url(#clip3)"><g clip-path="url(#clip4)"><path d="M61.3112 48.9557 43.8322 48.9557C43.1491 48.9557 42.466 48.89 41.8485 48.7718 36.771 47.9639 33.6246 44.2198 33.6772 39.0043L33.6772 18.195C33.6246 12.7825 36.9024 8.91358 42.2426 8.11878 42.8272 8.00055 43.5038 7.93486 44.2001 7.93486L61.4163 7.93486 61.4163 13.1832 44.0424 13.1832C43.7337 13.1832 43.3067 13.2291 43.0046 13.2686 40.0553 13.8335 38.932 15.1734 38.8795 18.2147L38.8795 26.0313C38.8795 26.0313 61.4163 26.0313 61.4163 26.0313L61.2653 31.2796 38.932 31.2796 38.932 38.7481C38.978 41.9799 40.7056 43.6549 44.0621 43.7074L61.3178 43.7074 61.3178 48.9557Z" fill="#789A3D" fill-rule="nonzero" fill-opacity="1" transform="matrix(1.00335 0 0 1 96 890.069)"/><path d="M93.0441 49.3104C91.9603 49.3104 90.8896 48.693 90.3707 47.7734L90.1342 47.4252 89.5759 46.5582 71.1181 19.7649 71.1181 49.028 65.8699 49.028 65.8699 10.7528C65.8699 10.7528 65.9224 10.3127 65.9224 10.3127 65.9487 9.70181 66.1851 9.11064 66.6055 8.58515 67.1047 7.96113 67.8798 7.58016 68.6878 7.58016 68.6943 7.58016 68.7075 7.58016 68.7206 7.58016 69.6008 7.58016 70.4679 8.03339 70.9802 8.77564 71.3152 9.2026 71.5188 9.62956 71.867 10.3718L90.9422 38.8401 90.9422 7.93486 96.2956 7.93486 96.2956 45.632C96.289 45.7897 96.2233 46.6436 95.7241 47.5566L95.6978 47.596C95.4022 48.0887 95.0738 48.4565 94.7125 48.7324 94.2527 49.1002 93.655 49.3104 93.0441 49.3104Z" fill="#76777B" fill-rule="nonzero" fill-opacity="1" transform="matrix(1.00335 0 0 1 96 890.069)"/><path d="M33.4013 48.9557 24.5468 48.9557 5.24831 34.38 5.24831 48.9557 0 48.9557 0 7.93486 19.4233 7.93486C22.8062 7.93486 25.4927 8.82819 27.3976 10.6017 29.3025 12.3687 30.3075 14.9567 30.3009 18.0965L30.3009 23.1674C30.3009 26.0642 29.3353 28.5274 27.4961 30.2746 25.6963 31.9956 23.1937 32.9021 20.2575 32.9021L12.014 32.9021 33.4079 48.9557ZM5.24831 13.1766 5.24831 27.6538C5.35997 27.6472 5.47821 27.6406 5.60301 27.6406L20.1984 27.6406C21.7486 27.6406 22.9113 27.3385 23.6469 26.7407 24.3432 26.1758 24.7636 25.3022 24.9672 23.9819 25.046 23.5287 25.0526 23.3973 25.0526 23.3711L25.0526 17.9257C25.0526 16.3689 24.6191 15.2326 23.752 14.4509 22.8259 13.6167 21.3282 13.1766 19.4168 13.1766L5.24831 13.1766Z" fill="#789A3D" fill-rule="nonzero" fill-opacity="1" transform="matrix(1.00335 0 0 1 96 890.069)"/><path d="M111.318 48.9557C108.086 48.9557 105.406 48.0296 103.56 46.2757 101.715 44.5219 100.743 41.993 100.749 38.9583L100.749 8.15162 105.997 8.15162 105.997 38.8992C106.03 41.277 106.72 42.4462 108.638 43.3396 109.242 43.6155 109.498 43.6943 111.384 43.7008L121.158 43.7008C122.044 43.7008 122.806 43.4841 123.483 43.0309 125.171 41.9208 125.67 41.0406 125.703 39.0897L125.703 8.15162 130.951 8.15162 130.951 38.7941C130.991 42.7878 129.526 45.5729 126.334 47.55 124.81 48.4828 123.076 48.9492 121.171 48.9492L111.325 48.9492Z" fill="#76777B" fill-rule="nonzero" fill-opacity="1" transform="matrix(1.00335 0 0 1 96 890.069)"/><path d="M108.112 0.256175C107.955 0.243038 107.791 0.236469 107.64 0.223332 101.918-0.295587 99.4551-0.170783 100.316 3.24488 100.834 4.21704 104.106 4.42066 108.112 4.3287L110.543 4.24331C114.195 4.08566 118.097 3.77037 120.941 3.61929 117.289 3.78351 116.77 3.46822 114.491 3.38939L132.265 3.15949C132.423 3.15949 132.889 3.13322 133.053 3.13322 131.799 3.10694 134.466 3.0544 133.218 3.0741 131.602 2.6143 129.487 2.87704 127.845 2.58803 123.693 1.85891 126.853 2.39097 122.754 1.87205 126.38 1.3794 127.207 2.51577 130.623 1.44509 128.265 1.3597 124.468 0.525487 120.278 0.308724 117.223 0.151078 113.788 0.387547 110.556 0.348135L108.126 0.243038Z" fill="#76777B" fill-rule="nonzero" fill-opacity="1" transform="matrix(1.00335 0 0 1 96 890.069)"/><path d="M21.2494 57.3241C21.5187 56.7198 21.9457 56.5424 22.3661 56.5424 22.9507 56.5424 23.463 56.9431 23.463 57.5934L23.463 74.4156 21.9391 74.4156 21.9391 59.6297 15.6333 73.9689C15.3442 74.6389 15.0946 74.8623 14.6742 74.8623 14.2538 74.8623 14.0042 74.6389 13.7152 73.9689L7.42908 59.6297 7.42908 74.4156 5.90516 74.4156 5.90516 57.7051C5.90516 56.9431 6.39781 56.5424 7.00212 56.5424 7.4028 56.5424 7.87574 56.7461 8.14505 57.3701L14.6742 72.2677 21.2494 57.3241Z" fill="#76777B" fill-rule="nonzero" fill-opacity="1" transform="matrix(1.00335 0 0 1 96 890.069)"/><path d="M31.6475 74.4156 31.6475 67.1245 25.9197 56.9694 27.5947 56.9694 32.4029 65.5349 37.2571 56.9694 38.932 56.9694 33.1648 67.1442 33.1648 74.4156 31.6409 74.4156Z" fill="#76777B" fill-rule="nonzero" fill-opacity="1" transform="matrix(1.00335 0 0 1 96 890.069)"/><path d="M52.5619 58.4408C51.038 58.4408 50.1249 58.9991 50.1249 60.6347L50.1249 70.7437C50.1249 72.399 51.0445 72.9377 52.5619 72.9377L60.1223 72.9377 60.1223 74.4156 52.1612 74.4156C50.0133 74.4156 48.6076 73.496 48.6076 71.2167L48.6076 60.2143C48.6076 57.935 50.0198 56.9694 52.1612 56.9694L60.1223 56.9694 60.1223 58.4473 52.5619 58.4473Z" fill="#789A3D" fill-rule="nonzero" fill-opacity="1" transform="matrix(1.00335 0 0 1 96 890.069)"/><path d="M75.7753 71.2167C75.7753 73.496 74.3696 74.4156 72.2414 74.4156L66.8092 74.4156C64.6612 74.4156 63.2556 73.4566 63.2556 71.1707L63.2556 60.2143C63.2556 57.935 64.6678 56.9694 66.8092 56.9694L72.2414 56.9694C74.3696 56.9694 75.7753 57.9284 75.7753 60.2143L75.7753 71.2167ZM64.7729 70.7503C64.7729 72.4056 65.6925 72.9442 67.2558 72.9442L71.8407 72.9442C73.3646 72.9442 74.2579 72.4056 74.2579 70.7503L74.2579 60.6412C74.2579 59.0057 73.3646 58.4473 71.8407 58.4473L67.2558 58.4473C65.6925 58.4473 64.7729 59.0057 64.7729 60.6412L64.7729 70.7503Z" fill="#789A3D" fill-rule="nonzero" fill-opacity="1" transform="matrix(1.00335 0 0 1 96 890.069)"/><path d="M92.0785 56.9694 92.0785 73.6077C92.0785 74.455 91.8355 74.8623 91.2049 74.8623 90.8502 74.8623 90.5349 74.7046 89.9503 73.8113L81.0958 59.7216 81.0958 74.4156 79.5719 74.4156 79.5719 57.7051C79.5719 56.9234 79.815 56.5424 80.4653 56.5424 80.8003 56.5424 81.0236 56.6541 81.3126 57.1008L90.5481 71.8604 90.5481 56.9628 92.072 56.9628Z" fill="#789A3D" fill-rule="nonzero" fill-opacity="1" transform="matrix(1.00335 0 0 1 96 890.069)"/><path d="M96.1051 56.9694 105.163 56.9694C107.291 56.9694 108.697 57.9284 108.697 60.2143L108.697 71.2167C108.697 73.496 107.291 74.4156 105.163 74.4156L96.1051 74.4156 96.1051 56.9694ZM97.629 58.4473 97.629 72.9442 104.762 72.9442C106.286 72.9442 107.18 72.4056 107.18 70.7503L107.18 60.6412C107.18 59.0057 106.286 58.4473 104.762 58.4473L97.629 58.4473Z" fill="#789A3D" fill-rule="nonzero" fill-opacity="1" transform="matrix(1.00335 0 0 1 96 890.069)"/><path d="M124.803 71.2167C124.803 73.496 123.398 74.4156 121.269 74.4156L115.837 74.4156C113.689 74.4156 112.284 73.4566 112.284 71.1707L112.284 60.2143C112.284 57.935 113.689 56.9694 115.837 56.9694L121.269 56.9694C123.398 56.9694 124.803 57.9284 124.803 60.2143L124.803 71.2167ZM113.801 70.7503C113.801 72.4056 114.72 72.9442 116.284 72.9442L120.869 72.9442C122.393 72.9442 123.286 72.4056 123.286 70.7503L123.286 60.6412C123.286 59.0057 122.393 58.4473 120.869 58.4473L116.284 58.4473C114.72 58.4473 113.801 59.0057 113.801 60.6412L113.801 70.7503Z" fill="#789A3D" fill-rule="nonzero" fill-opacity="1" transform="matrix(1.00335 0 0 1 96 890.069)"/></g></g></g></g></g></svg>